<svg width="400" height="400" viewBox="0 0 400 400" xmlns="http://www.w3.org/2000/svg">
  <defs>
    <linearGradient id="bg" x1="0%" y1="0%" x2="100%" y2="100%">
      <stop offset="0%" style="stop-color:#f8f9fa;stop-opacity:1" />
      <stop offset="100%" style="stop-color:#e9ecef;stop-opacity:1" />
    </linearGradient>
    <linearGradient id="shirt" x1="0%" y1="0%" x2="100%" y2="100%">
      <stop offset="0%" style="stop-color:#5cc8ff;stop-opacity:0.9" />
      <stop offset="50%" style="stop-color:#ffffff;stop-opacity:0.8" />
      <stop offset="100%" style="stop-color:#5cc8ff;stop-opacity:0.9" />
    </linearGradient>
    <pattern id="checkered" x="0" y="0" width="20" height="20" patternUnits="userSpaceOnUse">
      <rect width="10" height="10" fill="#ffffff" opacity="0.3"/>
      <rect x="10" y="10" width="10" height="10" fill="#ffffff" opacity="0.3"/>
    </pattern>
  </defs>
  
  <!-- Background (staircase) -->
  <rect width="400" height="400" fill="url(#bg)"/>
  
  <!-- Staircase steps -->
  <rect x="0" y="300" width="400" height="20" fill="#dee2e6"/>
  <rect x="0" y="280" width="400" height="20" fill="#e9ecef"/>
  <rect x="0" y="260" width="400" height="20" fill="#f1f3f4"/>
  
  <!-- Head (bald) -->
  <circle cx="200" cy="120" r="45" fill="#f4d1ae" stroke="#e6c7a8" stroke-width="2"/>
  
  <!-- Eyes (blue) -->
  <circle cx="185" cy="110" r="3" fill="#5cc8ff"/>
  <circle cx="215" cy="110" r="3" fill="#5cc8ff"/>
  
  <!-- Eyebrows -->
  <path d="M 175 100 Q 185 95 195 100" stroke="#8b4513" stroke-width="2" fill="none"/>
  <path d="M 205 100 Q 215 95 225 100" stroke="#8b4513" stroke-width="2" fill="none"/>
  
  <!-- Nose -->
  <ellipse cx="200" cy="125" rx="3" ry="5" fill="#e6c7a8"/>
  
  <!-- Smile -->
  <path d="M 180 140 Q 200 155 220 140" stroke="#333" stroke-width="2" fill="none"/>
  
  <!-- Goatee -->
  <ellipse cx="200" cy="150" rx="20" ry="8" fill="#d4a574" opacity="0.8"/>
  
  <!-- Mustache -->
  <ellipse cx="200" cy="135" rx="15" ry="4" fill="#d4a574" opacity="0.9"/>
  
  <!-- Shirt (blue and white checkered) -->
  <rect x="150" y="165" width="100" height="120" fill="url(#shirt)" rx="5"/>
  <rect x="150" y="165" width="100" height="120" fill="url(#checkered)" rx="5"/>
  
  <!-- Shirt collar -->
  <path d="M 180 165 L 200 175 L 220 165" fill="#ffffff" opacity="0.9"/>
  
  <!-- Pockets -->
  <rect x="165" y="185" width="12" height="15" fill="#ffffff" opacity="0.6" rx="2"/>
  <rect x="223" y="185" width="12" height="15" fill="#ffffff" opacity="0.6" rx="2"/>
  
  <!-- Button details -->
  <circle cx="200" cy="200" r="2" fill="#ffffff" opacity="0.7"/>
  <circle cx="200" cy="220" r="2" fill="#ffffff" opacity="0.7"/>
  <circle cx="200" cy="240" r="2" fill="#ffffff" opacity="0.7"/>
  
  <!-- Professional lighting effect -->
  <circle cx="200" cy="120" r="45" fill="none" stroke="#ffffff" stroke-width="1" opacity="0.3"/>
</svg>
